<svg width="16" height="18" viewBox="0 0 16 18" fill="none" xmlns="http://www.w3.org/2000/svg">
<path d="M1.77778 18C1.28889 18 0.87037 17.8237 0.522222 17.4713C0.174074 17.1187 0 16.695 0 16.2V3.6C0 3.105 0.174074 2.68125 0.522222 2.32875C0.87037 1.97625 1.28889 1.8 1.77778 1.8H2.66667V0.9C2.66667 0.645 2.75185 0.43125 2.92222 0.25875C3.09259 0.08625 3.3037 0 3.55556 0C3.80741 0 4.01852 0.08625 4.18889 0.25875C4.35926 0.43125 4.44444 0.645 4.44444 0.9V1.8H11.5556V0.9C11.5556 0.645 11.6407 0.43125 11.8111 0.25875C11.9815 0.08625 12.1926 0 12.4444 0C12.6963 0 12.9074 0.08625 13.0778 0.25875C13.2481 0.43125 13.3333 0.645 13.3333 0.9V1.8H14.2222C14.7111 1.8 15.1296 1.97625 15.4778 2.32875C15.8259 2.68125 16 3.105 16 3.6V16.2C16 16.695 15.8259 17.1187 15.4778 17.4713C15.1296 17.8237 14.7111 18 14.2222 18H1.77778ZM1.77778 16.2H14.2222V7.2H1.77778V16.2ZM1.77778 5.4H14.2222V3.6H1.77778V5.4ZM8 10.8C7.74815 10.8 7.53704 10.7137 7.36667 10.5413C7.1963 10.3688 7.11111 10.155 7.11111 9.9C7.11111 9.645 7.1963 9.43125 7.36667 9.25875C7.53704 9.08625 7.74815 9 8 9C8.25185 9 8.46296 9.08625 8.63333 9.25875C8.8037 9.43125 8.88889 9.645 8.88889 9.9C8.88889 10.155 8.8037 10.3688 8.63333 10.5413C8.46296 10.7137 8.25185 10.8 8 10.8ZM4.44444 10.8C4.19259 10.8 3.98148 10.7137 3.81111 10.5413C3.64074 10.3688 3.55556 10.155 3.55556 9.9C3.55556 9.645 3.64074 9.43125 3.81111 9.25875C3.98148 9.08625 4.19259 9 4.44444 9C4.6963 9 4.90741 9.08625 5.07778 9.25875C5.24815 9.43125 5.33333 9.645 5.33333 9.9C5.33333 10.155 5.24815 10.3688 5.07778 10.5413C4.90741 10.7137 4.6963 10.8 4.44444 10.8ZM11.5556 10.8C11.3037 10.8 11.0926 10.7137 10.9222 10.5413C10.7519 10.3688 10.6667 10.155 10.6667 9.9C10.6667 9.645 10.7519 9.43125 10.9222 9.25875C11.0926 9.08625 11.3037 9 11.5556 9C11.8074 9 12.0185 9.08625 12.1889 9.25875C12.3593 9.43125 12.4444 9.645 12.4444 9.9C12.4444 10.155 12.3593 10.3688 12.1889 10.5413C12.0185 10.7137 11.8074 10.8 11.5556 10.8ZM8 14.4C7.74815 14.4 7.53704 14.3138 7.36667 14.1413C7.1963 13.9688 7.11111 13.755 7.11111 13.5C7.11111 13.245 7.1963 13.0312 7.36667 12.8588C7.53704 12.6862 7.74815 12.6 8 12.6C8.25185 12.6 8.46296 12.6862 8.63333 12.8588C8.8037 13.0312 8.88889 13.245 8.88889 13.5C8.88889 13.755 8.8037 13.9688 8.63333 14.1413C8.46296 14.3138 8.25185 14.4 8 14.4ZM4.44444 14.4C4.19259 14.4 3.98148 14.3138 3.81111 14.1413C3.64074 13.9688 3.55556 13.755 3.55556 13.5C3.55556 13.245 3.64074 13.0312 3.81111 12.8588C3.98148 12.6862 4.19259 12.6 4.44444 12.6C4.6963 12.6 4.90741 12.6862 5.07778 12.8588C5.24815 13.0312 5.33333 13.245 5.33333 13.5C5.33333 13.755 5.24815 13.9688 5.07778 14.1413C4.90741 14.3138 4.6963 14.4 4.44444 14.4ZM11.5556 14.4C11.3037 14.4 11.0926 14.3138 10.9222 14.1413C10.7519 13.9688 10.6667 13.755 10.6667 13.5C10.6667 13.245 10.7519 13.0312 10.9222 12.8588C11.0926 12.6862 11.3037 12.6 11.5556 12.6C11.8074 12.6 12.0185 12.6862 12.1889 12.8588C12.3593 13.0312 12.4444 13.245 12.4444 13.5C12.4444 13.755 12.3593 13.9688 12.1889 14.1413C12.0185 14.3138 11.8074 14.4 11.5556 14.4Z" fill="#4EA487"/>
</svg>
