<svg width="12" height="9" viewBox="0 0 12 9" fill="none" xmlns="http://www.w3.org/2000/svg">
<path d="M4.10373 7.03563L10.6807 0.240535C10.8359 0.0801782 11.017 0 11.224 0C11.4309 0 11.612 0.0801782 11.7672 0.240535C11.9224 0.400891 12 0.591314 12 0.811804C12 1.03229 11.9224 1.22272 11.7672 1.38307L4.64696 8.75947C4.49175 8.91982 4.31068 9 4.10373 9C3.89679 9 3.71571 8.91982 3.5605 8.75947L0.223501 5.3118C0.0682921 5.15145 -0.00607903 4.96102 0.000388023 4.74053C0.00685507 4.52004 0.0876932 4.32962 0.242902 4.16927C0.398112 4.00891 0.582423 3.92873 0.795835 3.92873C1.00925 3.92873 1.19356 4.00891 1.34877 4.16927L4.10373 7.03563Z" fill="#F1C953"/>
</svg>
