<svg width="92" height="11" viewBox="0 0 92 11" fill="none" xmlns="http://www.w3.org/2000/svg">
<path d="M4.17473 1.04503C4.29624 0.967901 4.38942 0.849846 4.43021 0.710108C4.47103 0.57043 4.45665 0.42152 4.38951 0.294749C4.32237 0.167978 4.20726 0.0724188 4.06878 0.0277061C3.93027 -0.0170668 3.78026 -0.00632037 3.64819 0.0508561C3.64819 0.0508561 3.64819 0.0508561 3.64819 0.0508561C2.8188 0.424332 2.11551 0.776782 1.40519 1.30875C1.26261 1.41211 1.02959 1.61299 0.867667 1.77748C0.688639 1.96345 0.572414 2.0828 0.392988 2.36018C0.235471 2.61146 0.120184 2.85612 0.0493878 3.17059C-0.023316 3.49731 -0.0142743 3.85367 0.066789 4.16764C1.13959 6.59462 2.97527 6.81911 4.50614 7.51795C6.11927 8.09803 7.66796 8.48829 9.29114 8.83303C12.4854 9.50132 15.7219 9.90264 18.9455 10.1658C28.3239 10.8347 37.6898 11.0987 47.1618 9.83675C59.9888 7.69851 73.0284 6.99318 86.0804 7.44608C87.6758 7.49744 89.2714 7.56301 90.8673 7.64013C91.0144 7.64723 91.1597 7.59818 91.2713 7.50107C91.383 7.40399 91.4518 7.26726 91.4627 7.12044C91.4737 6.97363 91.4259 6.8282 91.3298 6.71564C91.2338 6.60306 91.0974 6.53303 90.9508 6.51824C90.9508 6.51824 90.9508 6.51824 90.9508 6.51824C89.3552 6.35756 87.7575 6.21111 86.1577 6.0816C73.0747 4.98797 59.8067 5.24244 46.7477 7.15061C37.7906 8.16607 28.3435 7.83818 19.1868 7.17551C13.1965 6.52534 5.43133 6.4621 1.79375 3.66008C1.64551 3.49566 1.84026 2.94558 2.37546 2.42798C2.86639 1.93311 3.45257 1.50069 4.17473 1.04503Z" fill="#F1C953"/>
</svg>
