<svg width="56" height="9" viewBox="0 0 56 9" fill="none" xmlns="http://www.w3.org/2000/svg">
<path d="M1.11002 0.434061C1.06868 0.299389 0.985572 0.177477 0.867154 0.0971136C0.74883 0.0167348 0.606447 -0.0157699 0.46862 0.0072012C0.330793 0.0301723 0.206649 0.107098 0.12079 0.221508C0.0348359 0.335933 -0.00423939 0.478209 0.000329177 0.619009C0.000329177 0.619009 0.000329177 0.619009 0.000329177 0.619009C0.0445563 1.69041 0.443364 2.77195 1.12261 3.6445C4.15074 7.0828 8.50513 7.46625 12.2772 7.82466C25.7569 8.67744 39.0095 5.43499 51.7489 7.61889C52.6432 7.83955 53.5066 8.1281 54.2784 8.51623C54.4086 8.58239 54.56 8.59899 54.7014 8.55846C54.8429 8.51796 54.9624 8.42428 55.0342 8.29728C55.106 8.17027 55.1246 8.01955 55.0863 7.8775C55.0481 7.73542 54.9558 7.61429 54.832 7.53684C54.832 7.53684 54.832 7.53684 54.832 7.53684C53.9991 7.01877 53.0765 6.62354 52.1318 6.30695C38.8369 2.92066 25.3885 5.69156 12.4775 4.83136C8.88228 4.52865 5.00906 4.39212 2.44511 2.42344C1.8409 1.91813 1.37467 1.26703 1.11002 0.434061Z" fill="#F1C953"/>
</svg>
