<svg width="43" height="42" viewBox="0 0 43 42" fill="none" xmlns="http://www.w3.org/2000/svg">
<path d="M18.7295 1.71005L19.2543 3.86752C19.403 4.4788 19.324 5.04076 19.0172 5.55338C18.7104 6.066 18.2559 6.39557 17.6537 6.54208C17.0515 6.68859 16.4964 6.60464 15.9884 6.29024C15.4804 5.97583 15.152 5.51299 15.0033 4.90171L14.4784 2.74424C14.3297 2.13296 14.4088 1.571 14.7156 1.05838C15.0223 0.545758 15.4769 0.216187 16.0791 0.0696772C16.6813 -0.0768325 17.2364 0.00711868 17.7444 0.321523C18.2524 0.635928 18.5807 1.09877 18.7295 1.71005ZM40.9822 19.148L38.8567 19.6651C38.2545 19.8116 37.6993 19.7276 37.1914 19.4132C36.6834 19.0988 36.355 18.636 36.2063 18.0247C36.0576 17.4134 36.1366 16.8515 36.4434 16.3388C36.7502 15.8262 37.2047 15.4966 37.8069 15.3501L39.9324 14.833C40.5347 14.6865 41.0898 14.7705 41.5978 15.0849C42.1058 15.3993 42.4341 15.8621 42.5828 16.4734C42.7315 17.0847 42.6525 17.6467 42.3457 18.1593C42.0389 18.6719 41.5844 19.0015 40.9822 19.148ZM4.8486 27.9386L2.7231 28.4557C2.12087 28.6022 1.56577 28.5182 1.05778 28.2038C0.549788 27.8894 0.221437 27.4266 0.0727241 26.8153C-0.0759889 26.204 0.00304966 25.642 0.309837 25.1294C0.616628 24.6168 1.07113 24.2872 1.67336 24.1407L3.79886 23.6236C4.40109 23.4771 4.9562 23.5611 5.46419 23.8755C5.97217 24.1899 6.30053 24.6527 6.44924 25.264C6.59795 25.8753 6.51891 26.4372 6.21212 26.9499C5.90533 27.4625 5.45083 27.7921 4.8486 27.9386ZM6.28354 8.85118L8.1388 9.99944C8.6247 10.3002 8.94201 10.7562 9.09072 11.3675C9.23944 11.9788 9.16707 12.5296 8.87362 13.0199C8.58017 13.5102 8.13233 13.8287 7.5301 13.9752C6.92788 14.1217 6.38381 14.0446 5.89791 13.7438L4.04265 12.5956C3.55675 12.2948 3.23944 11.8388 3.09073 11.2275C2.94201 10.6163 3.01438 10.0654 3.30783 9.57511C3.60128 9.08477 4.04912 8.76635 4.65135 8.61984C5.25357 8.47333 5.79763 8.55044 6.28354 8.85118ZM32.5244 5.66652L31.404 7.53871C31.1105 8.02904 30.6627 8.34747 30.0605 8.49398C29.4582 8.64049 28.9142 8.56337 28.4283 8.26264C27.9424 7.9619 27.6251 7.5059 27.4763 6.89461C27.3276 6.28333 27.4 5.73252 27.6934 5.24219L28.8139 3.36999C29.1073 2.87965 29.5552 2.56123 30.1574 2.41472C30.7596 2.26821 31.3037 2.34532 31.7896 2.64606C32.2755 2.9468 32.5928 3.40281 32.7415 4.01409C32.8902 4.62537 32.8179 5.17618 32.5244 5.66652ZM18.7034 10.857C21.6437 10.1417 24.4059 10.5837 26.99 12.1831C29.5741 13.7825 31.2292 16.0744 31.9553 19.0589C32.3752 20.7849 32.3858 22.4866 31.9872 24.1642C31.5886 25.8417 30.8608 27.3613 29.8038 28.7229L31.3784 35.1953C31.667 36.382 31.4979 37.499 30.871 38.5466C30.2441 39.5941 29.3461 40.2601 28.1771 40.5445L23.9261 41.5787C22.7571 41.8631 21.6535 41.684 20.6155 41.0415C19.5774 40.3991 18.914 39.4845 18.6253 38.2979L17.0507 31.8255C15.4863 31.1016 14.1418 30.0862 13.0171 28.7792C11.8924 27.4723 11.1201 25.9558 10.7002 24.2298C9.97418 21.2453 10.3915 18.4492 11.9521 15.8415C13.5127 13.2338 15.7631 11.5723 18.7034 10.857ZM26.0251 31.6988C25.6884 31.8569 25.3473 31.9971 25.0017 32.1192C24.6562 32.2413 24.3064 32.3455 23.9521 32.4317C23.5979 32.5179 23.2392 32.5861 22.8762 32.6363C22.5132 32.6865 22.1459 32.7188 21.7741 32.733L22.8764 37.2637L27.1274 36.2295L26.0251 31.6988ZM19.7532 15.172C17.9819 15.6029 16.6294 16.5984 15.6957 18.1586C14.762 19.7187 14.5139 21.3977 14.9513 23.1956C15.3886 24.9935 16.3804 26.3709 17.9264 27.3278C19.4725 28.2847 21.1311 28.5477 22.9024 28.1168C24.6736 27.6858 26.0261 26.6903 26.9598 25.1301C27.8935 23.57 28.1417 21.891 27.7043 20.0931C27.2669 18.2952 26.2752 16.9178 24.7291 15.9609C23.1831 15.004 21.5244 14.741 19.7532 15.172Z" fill="#F1C953"/>
</svg>
