<svg width="24" height="24" viewBox="0 0 24 24" fill="none" xmlns="http://www.w3.org/2000/svg">
<path d="M11.637 0C8.47683 0 8.08024 0.0138184 6.83907 0.0703033C5.60032 0.127031 4.75477 0.323152 4.01491 0.610909C3.2496 0.908121 2.60041 1.3057 1.95364 1.95273C1.30638 2.59952 0.908821 3.24873 0.610648 4.01382C0.322172 4.75394 0.125814 5.59976 0.0700584 6.83806C0.0145449 8.07927 0 8.47612 0 11.6364C0 14.7966 0.0140604 15.192 0.0703011 16.4332C0.127269 17.672 0.323384 18.5176 0.610891 19.2575C0.908336 20.0228 1.3059 20.672 1.95291 21.3188C2.59944 21.9661 3.24863 22.3646 4.01345 22.6618C4.7538 22.9496 5.59959 23.1457 6.8381 23.2024C8.07927 23.2589 8.47562 23.2727 11.6355 23.2727C14.7959 23.2727 15.1913 23.2589 16.4325 23.2024C17.6712 23.1457 18.5177 22.9496 19.2581 22.6618C20.0232 22.3646 20.6714 21.9661 21.3179 21.3188C21.9652 20.672 22.3627 20.0228 22.6609 19.2577C22.9469 18.5176 23.1433 17.6718 23.2015 16.4335C23.2572 15.1922 23.2718 14.7966 23.2718 11.6364C23.2718 8.47612 23.2572 8.07952 23.2015 6.8383C23.1433 5.59952 22.9469 4.75394 22.6609 4.01406C22.3627 3.24873 21.9652 2.59952 21.3179 1.95273C20.6706 1.30545 20.0234 0.907879 19.2574 0.610909C18.5156 0.323152 17.6695 0.127031 16.4308 0.0703033C15.1896 0.0138184 14.7945 0 11.6333 0H11.637ZM10.5931 2.09697C10.9029 2.09648 11.2486 2.09697 11.637 2.09697C14.7438 2.09697 15.112 2.10812 16.3389 2.16388C17.4734 2.21576 18.0891 2.40533 18.4993 2.56461C19.0423 2.77552 19.4295 3.02764 19.8365 3.43491C20.2438 3.84218 20.4959 4.23006 20.7073 4.77309C20.8665 5.18279 21.0563 5.79855 21.108 6.93309C21.1637 8.15976 21.1758 8.52824 21.1758 11.6337C21.1758 14.7392 21.1637 15.1076 21.108 16.3343C21.0561 17.4688 20.8665 18.0846 20.7073 18.4943C20.4963 19.0373 20.2438 19.424 19.8365 19.831C19.4292 20.2383 19.0426 20.4904 18.4993 20.7013C18.0896 20.8613 17.4734 21.0504 16.3389 21.1023C15.1123 21.1581 14.7438 21.1702 11.637 21.1702C8.52992 21.1702 8.16169 21.1581 6.93506 21.1023C5.80055 21.0499 5.18481 20.8604 4.7744 20.7011C4.23139 20.4902 3.84352 20.2381 3.43626 19.8308C3.029 19.4235 2.77689 19.0366 2.5655 18.4933C2.40623 18.0836 2.21642 17.4679 2.16478 16.3333C2.10903 15.1067 2.09788 14.7382 2.09788 11.6308C2.09788 8.52339 2.10903 8.15685 2.16478 6.93018C2.21666 5.79564 2.40623 5.17988 2.5655 4.7697C2.7764 4.22667 3.029 3.83879 3.43626 3.43151C3.84352 3.02424 4.23139 2.77212 4.7744 2.56073C5.18457 2.40073 5.80055 2.21164 6.93506 2.15952C8.00848 2.11103 8.42447 2.09649 10.5931 2.09406V2.09697ZM17.8482 4.02909C17.0773 4.02909 16.4519 4.65382 16.4519 5.42497C16.4519 6.19588 17.0773 6.82133 17.8482 6.82133C18.6191 6.82133 19.2445 6.19588 19.2445 5.42497C19.2445 4.65406 18.6191 4.02861 17.8482 4.02861V4.02909ZM11.637 5.66061C8.33696 5.66061 5.6614 8.33624 5.6614 11.6364C5.6614 14.9365 8.33696 17.6109 11.637 17.6109C14.937 17.6109 17.6116 14.9365 17.6116 11.6364C17.6116 8.33624 14.937 5.66061 11.637 5.66061ZM11.637 7.75758C13.779 7.75758 15.5157 9.49406 15.5157 11.6364C15.5157 13.7784 13.779 15.5152 11.637 15.5152C9.49474 15.5152 7.75831 13.7784 7.75831 11.6364C7.75831 9.49406 9.49474 7.75758 11.637 7.75758Z" fill="#4EA487"/>
</svg>
