<svg width="32" height="53" viewBox="0 0 32 53" fill="none" xmlns="http://www.w3.org/2000/svg">
<path d="M27.9586 0.432057L29.3951 5.26789e-05L30.2591 2.87294L28.8226 3.30495L28.3906 1.8685L27.9586 0.432057ZM31.5788 52.1134L14.2643 52.5724L22.5241 37.3482L31.5788 52.1134ZM28.3906 1.8685L28.8226 3.30495C18.1426 6.51689 11.4221 10.1099 7.52692 13.7455C3.69462 17.3224 2.62369 20.9013 3.11048 24.3353C3.61354 27.884 5.81622 31.5306 9.06148 35.0371C12.2872 38.5224 16.4195 41.7361 20.5331 44.4198L19.7135 45.6761L18.894 46.9324C14.6544 44.1666 10.3074 40.7999 6.85975 37.0748C3.43164 33.3708 0.766824 29.177 0.140177 24.7563C-0.502736 20.221 1.03443 15.7016 5.47993 11.5524C9.86253 7.46184 17.0895 3.70088 27.9586 0.432057L28.3906 1.8685Z" fill="#F1C953"/>
</svg>
