<svg width="40" height="40" viewBox="0 0 40 40" fill="none" xmlns="http://www.w3.org/2000/svg">
<path d="M10.1 17.6115C10.5667 16.6782 11.05 15.7782 11.55 14.9115C12.05 14.0449 12.6 13.1782 13.2 12.3115L10.4 11.7615L6.2 15.9615L10.1 17.6115ZM34.2 3.86154C31.8667 3.92821 29.375 4.61154 26.725 5.91154C24.075 7.21154 21.6667 8.94487 19.5 11.1115C18.1 12.5115 16.85 14.0115 15.75 15.6115C14.65 17.2115 13.8333 18.7115 13.3 20.1115L19 25.7615C20.4 25.2282 21.9 24.4115 23.5 23.3115C25.1 22.2115 26.6 20.9615 28 19.5615C30.1667 17.3949 31.9 14.9949 33.2 12.3615C34.5 9.72821 35.1833 7.24487 35.25 4.91154C35.25 4.77821 35.225 4.64487 35.175 4.51154C35.125 4.37821 35.05 4.26154 34.95 4.16154C34.85 4.06154 34.7333 3.98654 34.6 3.93654C34.4667 3.88654 34.3333 3.86154 34.2 3.86154ZM23.2 15.8615C22.4333 15.0949 22.05 14.1532 22.05 13.0365C22.05 11.9199 22.4333 10.9782 23.2 10.2115C23.9667 9.44487 24.9167 9.06154 26.05 9.06154C27.1833 9.06154 28.1333 9.44487 28.9 10.2115C29.6667 10.9782 30.05 11.9199 30.05 13.0365C30.05 14.1532 29.6667 15.0949 28.9 15.8615C28.1333 16.6282 27.1833 17.0115 26.05 17.0115C24.9167 17.0115 23.9667 16.6282 23.2 15.8615ZM21.5 28.9615L23.15 32.9115L27.35 28.7115L26.8 25.9115C25.9333 26.5115 25.0667 27.0532 24.2 27.5365C23.3333 28.0199 22.4333 28.4949 21.5 28.9615ZM39.05 2.26154C39.3167 5.92821 38.7167 9.50321 37.25 12.9865C35.7833 16.4699 33.4667 19.7949 30.3 22.9615L31.3 27.9115C31.4333 28.5782 31.4 29.2282 31.2 29.8615C31 30.4949 30.6667 31.0449 30.2 31.5115L23.9 37.8115C23.4 38.3115 22.8 38.5032 22.1 38.3865C21.4 38.2699 20.9167 37.8782 20.65 37.2115L17.6 30.0615L9.05 21.5115L1.9 18.4615C1.23333 18.1949 0.833333 17.7115 0.7 17.0115C0.566667 16.3115 0.75 15.7115 1.25 15.2115L7.55 8.91154C8.01667 8.44487 8.575 8.11154 9.225 7.91154C9.875 7.71154 10.5333 7.67821 11.2 7.81154L16.15 8.81154C19.3167 5.64487 22.6417 3.32821 26.125 1.86154C29.6083 0.394872 33.1833 -0.205128 36.85 0.0615385C37.1167 0.0948718 37.3833 0.169872 37.65 0.286538C37.9167 0.403205 38.15 0.561538 38.35 0.761538C38.55 0.961538 38.7083 1.19487 38.825 1.46154C38.9417 1.72821 39.0167 1.99487 39.05 2.26154ZM3.75 26.8615C4.91667 25.6949 6.34167 25.1032 8.025 25.0865C9.70833 25.0699 11.1333 25.6449 12.3 26.8115C13.4667 27.9782 14.0417 29.4032 14.025 31.0865C14.0083 32.7699 13.4167 34.1949 12.25 35.3615C10.65 36.9615 8.75833 37.9115 6.575 38.2115C4.39167 38.5115 2.2 38.8115 0 39.1115C0.3 36.9115 0.6 34.7199 0.9 32.5365C1.2 30.3532 2.15 28.4615 3.75 26.8615ZM6.6 29.6615C6.03333 30.2282 5.64167 30.9115 5.425 31.7115C5.20833 32.5115 5.03333 33.3282 4.9 34.1615C5.73333 34.0282 6.55 33.8615 7.35 33.6615C8.15 33.4615 8.83333 33.0782 9.4 32.5115C9.8 32.1115 10.0167 31.6282 10.05 31.0615C10.0833 30.4949 9.9 30.0115 9.5 29.6115C9.1 29.2115 8.61667 29.0199 8.05 29.0365C7.48333 29.0532 7 29.2615 6.6 29.6615Z" fill="#F1C953"/>
</svg>
