<svg width="16" height="18" viewBox="0 0 16 18" fill="none" xmlns="http://www.w3.org/2000/svg">
<path d="M13.3333 18C12.5926 18 11.963 17.7375 11.4444 17.2125C10.9259 16.6875 10.6667 16.05 10.6667 15.3C10.6667 15.21 10.6889 15 10.7333 14.67L4.48889 10.98C4.25185 11.205 3.97778 11.3813 3.66667 11.5087C3.35556 11.6363 3.02222 11.7 2.66667 11.7C1.92593 11.7 1.2963 11.4375 0.777778 10.9125C0.259259 10.3875 0 9.75 0 9C0 8.25 0.259259 7.6125 0.777778 7.0875C1.2963 6.5625 1.92593 6.3 2.66667 6.3C3.02222 6.3 3.35556 6.36375 3.66667 6.49125C3.97778 6.61875 4.25185 6.795 4.48889 7.02L10.7333 3.33C10.7037 3.225 10.6852 3.12375 10.6778 3.02625C10.6704 2.92875 10.6667 2.82 10.6667 2.7C10.6667 1.95 10.9259 1.3125 11.4444 0.7875C11.963 0.2625 12.5926 0 13.3333 0C14.0741 0 14.7037 0.2625 15.2222 0.7875C15.7407 1.3125 16 1.95 16 2.7C16 3.45 15.7407 4.0875 15.2222 4.6125C14.7037 5.1375 14.0741 5.4 13.3333 5.4C12.9778 5.4 12.6444 5.33625 12.3333 5.20875C12.0222 5.08125 11.7481 4.905 11.5111 4.68L5.26667 8.37C5.2963 8.475 5.31482 8.57625 5.32222 8.67375C5.32963 8.77125 5.33333 8.88 5.33333 9C5.33333 9.12 5.32963 9.22875 5.32222 9.32625C5.31482 9.42375 5.2963 9.525 5.26667 9.63L11.5111 13.32C11.7481 13.095 12.0222 12.9187 12.3333 12.7913C12.6444 12.6638 12.9778 12.6 13.3333 12.6C14.0741 12.6 14.7037 12.8625 15.2222 13.3875C15.7407 13.9125 16 14.55 16 15.3C16 16.05 15.7407 16.6875 15.2222 17.2125C14.7037 17.7375 14.0741 18 13.3333 18ZM13.3333 16.2C13.5852 16.2 13.7963 16.1137 13.9667 15.9412C14.137 15.7687 14.2222 15.555 14.2222 15.3C14.2222 15.045 14.137 14.8313 13.9667 14.6587C13.7963 14.4862 13.5852 14.4 13.3333 14.4C13.0815 14.4 12.8704 14.4862 12.7 14.6587C12.5296 14.8313 12.4444 15.045 12.4444 15.3C12.4444 15.555 12.5296 15.7687 12.7 15.9412C12.8704 16.1137 13.0815 16.2 13.3333 16.2ZM2.66667 9.9C2.91852 9.9 3.12963 9.81375 3.3 9.64125C3.47037 9.46875 3.55556 9.255 3.55556 9C3.55556 8.745 3.47037 8.53125 3.3 8.35875C3.12963 8.18625 2.91852 8.1 2.66667 8.1C2.41481 8.1 2.2037 8.18625 2.03333 8.35875C1.86296 8.53125 1.77778 8.745 1.77778 9C1.77778 9.255 1.86296 9.46875 2.03333 9.64125C2.2037 9.81375 2.41481 9.9 2.66667 9.9ZM13.3333 3.6C13.5852 3.6 13.7963 3.51375 13.9667 3.34125C14.137 3.16875 14.2222 2.955 14.2222 2.7C14.2222 2.445 14.137 2.23125 13.9667 2.05875C13.7963 1.88625 13.5852 1.8 13.3333 1.8C13.0815 1.8 12.8704 1.88625 12.7 2.05875C12.5296 2.23125 12.4444 2.445 12.4444 2.7C12.4444 2.955 12.5296 3.16875 12.7 3.34125C12.8704 3.51375 13.0815 3.6 13.3333 3.6Z" fill="#4EA487"/>
</svg>
