<svg width="24" height="27" viewBox="0 0 24 27" fill="none" xmlns="http://www.w3.org/2000/svg">
<path d="M20 26.6667C18.8889 26.6667 17.9444 26.2778 17.1667 25.5C16.3889 24.7222 16 23.7778 16 22.6667C16 22.5333 16.0333 22.2222 16.1 21.7333L6.73333 16.2667C6.37778 16.6 5.96667 16.8611 5.5 17.05C5.03333 17.2389 4.53333 17.3333 4 17.3333C2.88889 17.3333 1.94444 16.9444 1.16667 16.1667C0.388889 15.3889 0 14.4444 0 13.3333C0 12.2222 0.388889 11.2778 1.16667 10.5C1.94444 9.72222 2.88889 9.33333 4 9.33333C4.53333 9.33333 5.03333 9.42778 5.5 9.61667C5.96667 9.80556 6.37778 10.0667 6.73333 10.4L16.1 4.93333C16.0556 4.77778 16.0278 4.62778 16.0167 4.48333C16.0056 4.33889 16 4.17778 16 4C16 2.88889 16.3889 1.94444 17.1667 1.16667C17.9444 0.388889 18.8889 0 20 0C21.1111 0 22.0556 0.388889 22.8333 1.16667C23.6111 1.94444 24 2.88889 24 4C24 5.11111 23.6111 6.05556 22.8333 6.83333C22.0556 7.61111 21.1111 8 20 8C19.4667 8 18.9667 7.90555 18.5 7.71667C18.0333 7.52778 17.6222 7.26667 17.2667 6.93333L7.9 12.4C7.94445 12.5556 7.97222 12.7056 7.98333 12.85C7.99444 12.9944 8 13.1556 8 13.3333C8 13.5111 7.99444 13.6722 7.98333 13.8167C7.97222 13.9611 7.94445 14.1111 7.9 14.2667L17.2667 19.7333C17.6222 19.4 18.0333 19.1389 18.5 18.95C18.9667 18.7611 19.4667 18.6667 20 18.6667C21.1111 18.6667 22.0556 19.0556 22.8333 19.8333C23.6111 20.6111 24 21.5556 24 22.6667C24 23.7778 23.6111 24.7222 22.8333 25.5C22.0556 26.2778 21.1111 26.6667 20 26.6667ZM20 24C20.3778 24 20.6944 23.8722 20.95 23.6167C21.2056 23.3611 21.3333 23.0444 21.3333 22.6667C21.3333 22.2889 21.2056 21.9722 20.95 21.7167C20.6944 21.4611 20.3778 21.3333 20 21.3333C19.6222 21.3333 19.3056 21.4611 19.05 21.7167C18.7944 21.9722 18.6667 22.2889 18.6667 22.6667C18.6667 23.0444 18.7944 23.3611 19.05 23.6167C19.3056 23.8722 19.6222 24 20 24ZM4 14.6667C4.37778 14.6667 4.69444 14.5389 4.95 14.2833C5.20556 14.0278 5.33333 13.7111 5.33333 13.3333C5.33333 12.9556 5.20556 12.6389 4.95 12.3833C4.69444 12.1278 4.37778 12 4 12C3.62222 12 3.30556 12.1278 3.05 12.3833C2.79444 12.6389 2.66667 12.9556 2.66667 13.3333C2.66667 13.7111 2.79444 14.0278 3.05 14.2833C3.30556 14.5389 3.62222 14.6667 4 14.6667ZM20 5.33333C20.3778 5.33333 20.6944 5.20556 20.95 4.95C21.2056 4.69444 21.3333 4.37778 21.3333 4C21.3333 3.62222 21.2056 3.30556 20.95 3.05C20.6944 2.79444 20.3778 2.66667 20 2.66667C19.6222 2.66667 19.3056 2.79444 19.05 3.05C18.7944 3.30556 18.6667 3.62222 18.6667 4C18.6667 4.37778 18.7944 4.69444 19.05 4.95C19.3056 5.20556 19.6222 5.33333 20 5.33333Z" fill="#F1C953"/>
</svg>
