<svg width="121" height="18" viewBox="0 0 121 18" fill="none" xmlns="http://www.w3.org/2000/svg">
<path d="M116.501 0.893534C116.419 0.774066 116.381 0.627382 116.4 0.482189C116.42 0.337028 116.494 0.205809 116.609 0.11669C116.723 0.0275719 116.868 -0.0128566 117.014 0.00359192C117.159 0.0200074 117.293 0.0925123 117.388 0.201594C117.388 0.201594 117.388 0.201594 117.388 0.201594C118.844 1.91463 120.248 3.79623 120.523 6.31874C120.853 8.95943 118.828 11.337 116.851 12.4822C114.829 13.7229 112.686 14.4281 110.51 15.0082C106.219 16.1154 101.792 16.6116 97.4649 16.9278C79.1872 18.0715 61.0198 17.1045 42.8975 17.04C30.8366 16.8464 18.581 17.2537 6.63421 14.4099C4.51298 13.8862 2.42601 13.2461 0.375709 12.5029C0.236778 12.4525 0.121871 12.3504 0.0569116 12.2171C-0.00804653 12.0838 -0.0178408 11.9306 0.0298108 11.7908C0.0774547 11.6509 0.178777 11.5356 0.311604 11.4697C0.444436 11.4038 0.597786 11.3931 0.738566 11.438C2.78187 12.0908 4.84712 12.6404 6.93848 13.0775C18.6708 15.4356 30.8286 14.7008 42.8853 14.629C61.0617 14.3032 79.2803 15.064 97.253 13.9353C101.495 13.627 105.816 13.2333 109.885 12.3815C113.773 11.5098 118.682 10.1094 118.725 6.40228C118.729 4.58591 117.713 2.65772 116.501 0.893534Z" fill="#F1C953"/>
</svg>
