<svg width="48" height="48" viewBox="0 0 48 48" fill="none" xmlns="http://www.w3.org/2000/svg">
<mask id="mask0_3178_1163" style="mask-type:alpha" maskUnits="userSpaceOnUse" x="0" y="0" width="48" height="48">
<rect width="48" height="48" fill="#D9D9D9"/>
</mask>
<g mask="url(#mask0_3178_1163)">
<path d="M18 40H10C8.9 40 7.95833 39.6083 7.175 38.825C6.39167 38.0417 6 37.1 6 36V8C6 6.9 6.39167 5.95833 7.175 5.175C7.95833 4.39167 8.9 4 10 4H38C39.1 4 40.0417 4.39167 40.825 5.175C41.6083 5.95833 42 6.9 42 8V36C42 37.1 41.6083 38.0417 40.825 38.825C40.0417 39.6083 39.1 40 38 40H30L25.4 44.6C25.2 44.8 24.9833 44.9417 24.75 45.025C24.5167 45.1083 24.2667 45.15 24 45.15C23.7333 45.15 23.4833 45.1083 23.25 45.025C23.0167 44.9417 22.8 44.8 22.6 44.6L18 40ZM10 33.7C11.8 31.9333 13.8917 30.5417 16.275 29.525C18.6583 28.5083 21.2333 28 24 28C26.7667 28 29.3417 28.5083 31.725 29.525C34.1083 30.5417 36.2 31.9333 38 33.7V8H10V33.7ZM24 24C25.9333 24 27.5833 23.3167 28.95 21.95C30.3167 20.5833 31 18.9333 31 17C31 15.0667 30.3167 13.4167 28.95 12.05C27.5833 10.6833 25.9333 10 24 10C22.0667 10 20.4167 10.6833 19.05 12.05C17.6833 13.4167 17 15.0667 17 17C17 18.9333 17.6833 20.5833 19.05 21.95C20.4167 23.3167 22.0667 24 24 24ZM14 36H34V35.5C32.6 34.3333 31.05 33.4583 29.35 32.875C27.65 32.2917 25.8667 32 24 32C22.1333 32 20.35 32.2917 18.65 32.875C16.95 33.4583 15.4 34.3333 14 35.5V36ZM24 20C23.1667 20 22.4583 19.7083 21.875 19.125C21.2917 18.5417 21 17.8333 21 17C21 16.1667 21.2917 15.4583 21.875 14.875C22.4583 14.2917 23.1667 14 24 14C24.8333 14 25.5417 14.2917 26.125 14.875C26.7083 15.4583 27 16.1667 27 17C27 17.8333 26.7083 18.5417 26.125 19.125C25.5417 19.7083 24.8333 20 24 20Z" fill="#F1C953"/>
</g>
</svg>
