<svg width="36" height="42" viewBox="0 0 36 42" fill="none" xmlns="http://www.w3.org/2000/svg">
<path d="M12 36H4C2.9 36 1.95833 35.6083 1.175 34.825C0.391667 34.0417 0 33.1 0 32V4C0 2.9 0.391667 1.95833 1.175 1.175C1.95833 0.391667 2.9 0 4 0H32C33.1 0 34.0417 0.391667 34.825 1.175C35.6083 1.95833 36 2.9 36 4V32C36 33.1 35.6083 34.0417 34.825 34.825C34.0417 35.6083 33.1 36 32 36H24L19.4 40.6C19 41 18.5333 41.2 18 41.2C17.4667 41.2 17 41 16.6 40.6L12 36ZM4 32H13.6L18 36.4L22.4 32H32V4H4V32ZM17.8 30C18.5 30 19.0917 29.7583 19.575 29.275C20.0583 28.7917 20.3 28.2 20.3 27.5C20.3 26.8 20.0583 26.2083 19.575 25.725C19.0917 25.2417 18.5 25 17.8 25C17.1 25 16.5083 25.2417 16.025 25.725C15.5417 26.2083 15.3 26.8 15.3 27.5C15.3 28.2 15.5417 28.7917 16.025 29.275C16.5083 29.7583 17.1 30 17.8 30ZM21.3 12C21.3 12.5667 21.1167 13.175 20.75 13.825C20.3833 14.475 19.7667 15.1833 18.9 15.95C18.3333 16.45 17.875 16.925 17.525 17.375C17.175 17.825 16.8833 18.2833 16.65 18.75C16.5167 19.0167 16.4167 19.2833 16.35 19.55C16.2833 19.8167 16.2167 20.1167 16.15 20.45C16.0833 20.95 16.2167 21.3833 16.55 21.75C16.8833 22.1167 17.3167 22.3 17.85 22.3C18.3167 22.3 18.7333 22.1333 19.1 21.8C19.4667 21.4667 19.7167 21.0167 19.85 20.45C19.95 19.9833 20.1417 19.55 20.425 19.15C20.7083 18.75 21.1667 18.2333 21.8 17.6C22.9667 16.4333 23.7917 15.45 24.275 14.65C24.7583 13.85 25 12.9667 25 12C25 10.2 24.3917 8.75 23.175 7.65C21.9583 6.55 20.3 6 18.2 6C16.7 6 15.4 6.31667 14.3 6.95C13.2 7.58333 12.3167 8.46667 11.65 9.6C11.4167 10 11.4083 10.4167 11.625 10.85C11.8417 11.2833 12.1833 11.5833 12.65 11.75C13.0833 11.9167 13.5167 11.9167 13.95 11.75C14.3833 11.5833 14.7333 11.3167 15 10.95C15.3667 10.4833 15.8167 10.1083 16.35 9.825C16.8833 9.54167 17.5 9.4 18.2 9.4C19.0667 9.4 19.8 9.64167 20.4 10.125C21 10.6083 21.3 11.2333 21.3 12Z" fill="#F1C953"/>
</svg>
