<svg width="20" height="7" viewBox="0 0 20 7" fill="none" xmlns="http://www.w3.org/2000/svg">
<path d="M4.27062 7C3.65833 7 3.108 6.80313 2.61963 6.40938C2.13126 6.01562 1.82147 5.5125 1.69027 4.9L1.05611 1.96875H0.968644C0.720814 1.99792 0.505785 1.93229 0.323556 1.77188C0.141328 1.61146 0.0356357 1.40729 0.00647923 1.15938C-0.0226773 0.911458 0.0465694 0.7 0.214219 0.525C0.381869 0.35 0.58961 0.247917 0.83744 0.21875C1.74129 0.145833 2.52852 0.0911458 3.19912 0.0546875C3.86972 0.0182292 4.482 0 5.03598 0C5.98357 0 6.74892 0.04375 7.33205 0.13125C7.91518 0.21875 8.44 0.371875 8.90651 0.590625C9.1106 0.692708 9.30376 0.765625 9.48599 0.809375C9.66822 0.853125 9.83951 0.875 9.99988 0.875C10.1602 0.875 10.317 0.853125 10.47 0.809375C10.6231 0.765625 10.8017 0.7 11.0058 0.6125C11.4869 0.39375 12.0408 0.236979 12.6677 0.142188C13.2946 0.0473958 14.1255 0 15.1606 0C15.8312 0 16.5382 0.0182292 17.2817 0.0546875C18.0252 0.0911458 18.6594 0.138542 19.1842 0.196875C19.432 0.226042 19.6361 0.328125 19.7965 0.503125C19.9568 0.678125 20.0224 0.889583 19.9933 1.1375C19.9641 1.38542 19.8621 1.58958 19.6871 1.75C19.5122 1.91042 19.3008 1.97604 19.053 1.94688H18.9655L18.3095 4.92188C18.1783 5.53438 17.8721 6.03385 17.3911 6.42031C16.91 6.80677 16.3633 7 15.751 7H13.8048C13.1925 7 12.6531 6.81406 12.1866 6.44219C11.7201 6.07031 11.414 5.59271 11.2682 5.00938L10.6778 2.66875H9.34385L8.75343 5.00938C8.59307 5.60729 8.27964 6.08854 7.81314 6.45312C7.34663 6.81771 6.81453 7 6.21682 7H4.27062ZM3.39592 4.55C3.43966 4.75417 3.54171 4.92188 3.70207 5.05312C3.86243 5.18438 4.04466 5.25 4.24875 5.25H6.19495C6.39905 5.25 6.58127 5.18802 6.74163 5.06406C6.902 4.9401 7.00404 4.78333 7.04778 4.59375L7.72567 1.94688C7.33205 1.87396 6.88742 1.82656 6.39176 1.80469C5.8961 1.78281 5.44417 1.77188 5.03598 1.77188C4.70068 1.77188 4.33987 1.77552 3.95354 1.78281C3.56722 1.7901 3.20641 1.80833 2.87111 1.8375L3.39592 4.55ZM12.952 4.59375C12.9957 4.78333 13.0978 4.9401 13.2581 5.06406C13.4185 5.18802 13.6007 5.25 13.8048 5.25H15.751C15.9551 5.25 16.1373 5.18438 16.2977 5.05312C16.458 4.92188 16.5601 4.75417 16.6038 4.55L17.1724 1.81563C16.8808 1.80104 16.5455 1.7901 16.1665 1.78281C15.7874 1.77552 15.4521 1.77188 15.1606 1.77188C14.7232 1.77188 14.2385 1.78281 13.7064 1.80469C13.1743 1.82656 12.6969 1.87396 12.2741 1.94688L12.952 4.59375Z" fill="#4EA487"/>
</svg>
