<svg width="23" height="26" viewBox="0 0 23 26" fill="none" xmlns="http://www.w3.org/2000/svg">
<path d="M19.6715 5.54449C19.4965 5.45405 19.3262 5.35492 19.1611 5.24745C18.6811 4.93012 18.241 4.55622 17.8503 4.13379C16.8728 3.01529 16.5077 1.88055 16.3732 1.08612H16.3786C16.2663 0.426653 16.3127 0 16.3197 0H11.8673V17.2168C11.8673 17.4479 11.8673 17.6764 11.8576 17.9021C11.8576 17.9302 11.8549 17.9561 11.8533 17.9864C11.8533 17.9988 11.8533 18.0118 11.8506 18.0247C11.8506 18.028 11.8506 18.0312 11.8506 18.0344C11.8036 18.6522 11.6056 19.2489 11.2739 19.7722C10.9422 20.2954 10.487 20.7291 9.94839 21.0351C9.38699 21.3545 8.75206 21.522 8.10616 21.5212C6.03169 21.5212 4.35043 19.8297 4.35043 17.7406C4.35043 15.6516 6.03169 13.9601 8.10616 13.9601C8.49886 13.9597 8.88913 14.0215 9.26249 14.1431L9.26789 9.60969C8.13446 9.46329 6.98296 9.55335 5.88609 9.87422C4.78919 10.1951 3.77073 10.7399 2.89489 11.4741C2.12749 12.1408 1.48233 12.9364 0.988426 13.825C0.80046 14.1491 0.0913264 15.4512 0.00545968 17.5646C-0.0485403 18.7641 0.311693 20.0068 0.483426 20.5204V20.5312C0.59146 20.8337 1.01003 21.8658 1.69216 22.7359C2.24219 23.4338 2.89203 24.0469 3.62079 24.5554V24.5446L3.63159 24.5554C5.78706 26.0201 8.17693 25.924 8.17693 25.924C8.59063 25.9072 9.97646 25.924 11.5503 25.1781C13.2958 24.3512 14.2896 23.1193 14.2896 23.1193C14.9244 22.3832 15.4292 21.5444 15.7824 20.6387C16.1853 19.5796 16.3197 18.3093 16.3197 17.8017V8.66779C16.3738 8.70019 17.0931 9.17599 17.0931 9.17599C17.0931 9.17599 18.1296 9.84029 19.7466 10.2729C20.9067 10.5808 22.4697 10.6456 22.4697 10.6456V6.22552C21.922 6.28492 20.81 6.11212 19.6715 5.54449Z" fill="#4EA487"/>
</svg>
