<svg width="20" height="14" viewBox="0 0 20 14" fill="none" xmlns="http://www.w3.org/2000/svg">
<path d="M10 11.2C11.1655 11.2 12.1562 10.7917 12.972 9.975C13.7879 9.15833 14.1958 8.16667 14.1958 7C14.1958 5.83333 13.7879 4.84167 12.972 4.025C12.1562 3.20833 11.1655 2.8 10 2.8C8.8345 2.8 7.84382 3.20833 7.02797 4.025C6.21212 4.84167 5.8042 5.83333 5.8042 7C5.8042 8.16667 6.21212 9.15833 7.02797 9.975C7.84382 10.7917 8.8345 11.2 10 11.2ZM10 9.52C9.3007 9.52 8.70629 9.275 8.21678 8.785C7.72727 8.295 7.48252 7.7 7.48252 7C7.48252 6.3 7.72727 5.705 8.21678 5.215C8.70629 4.725 9.3007 4.48 10 4.48C10.6993 4.48 11.2937 4.725 11.7832 5.215C12.2727 5.705 12.5175 6.3 12.5175 7C12.5175 7.7 12.2727 8.295 11.7832 8.785C11.2937 9.275 10.6993 9.52 10 9.52ZM10 14C7.91764 14 6.01787 13.44 4.3007 12.32C2.58353 11.2 1.22766 9.72222 0.2331 7.88667C0.1554 7.74667 0.0971251 7.60278 0.0582751 7.455C0.019425 7.30722 0 7.15556 0 7C0 6.84444 0.019425 6.69278 0.0582751 6.545C0.0971251 6.39722 0.1554 6.25333 0.2331 6.11333C1.22766 4.27778 2.58353 2.8 4.3007 1.68C6.01787 0.56 7.91764 0 10 0C12.0824 0 13.9821 0.56 15.6993 1.68C17.4165 2.8 18.7723 4.27778 19.7669 6.11333C19.8446 6.25333 19.9029 6.39722 19.9417 6.545C19.9806 6.69278 20 6.84444 20 7C20 7.15556 19.9806 7.30722 19.9417 7.455C19.9029 7.60278 19.8446 7.74667 19.7669 7.88667C18.7723 9.72222 17.4165 11.2 15.6993 12.32C13.9821 13.44 12.0824 14 10 14ZM10 12.1333C11.756 12.1333 13.3683 11.6706 14.8368 10.745C16.3054 9.81944 17.4281 8.57111 18.2051 7C17.4281 5.42889 16.3054 4.18056 14.8368 3.255C13.3683 2.32944 11.756 1.86667 10 1.86667C8.24398 1.86667 6.6317 2.32944 5.16317 3.255C3.69464 4.18056 2.57187 5.42889 1.79487 7C2.57187 8.57111 3.69464 9.81944 5.16317 10.745C6.6317 11.6706 8.24398 12.1333 10 12.1333Z" fill="#4EA487"/>
</svg>
